<svg xmlns="http://www.w3.org/2000/svg" width="200" height="155" fill="none"><g clip-path="url(#a)"><path fill="#F2F2F2" d="M99 83.132H38.726c-1.59-.002-3.116-.554-4.24-1.535-1.125-.982-1.758-2.312-1.76-3.7V50.609c.002-1.388.635-2.719 1.76-3.7 1.124-.982 2.65-1.534 4.24-1.535H99c1.591.001 3.116.553 4.241 1.535 1.125.981 1.757 2.312 1.759 3.7v27.288c-.002 1.388-.634 2.718-1.759 3.7-1.125.981-2.65 1.534-4.24 1.535ZM178.364 83.132h-60.272c-1.591-.002-3.116-.554-4.241-1.535-1.125-.982-1.758-2.312-1.759-3.7V50.609c.001-1.388.634-2.719 1.759-3.7 1.125-.982 2.65-1.534 4.241-1.535h60.272c1.59.001 3.115.553 4.24 1.535 1.125.981 1.758 2.312 1.76 3.7v27.288c-.002 1.388-.635 2.718-1.76 3.7-1.125.981-2.65 1.534-4.24 1.535ZM104.999 128.506H32.727V93.761c.002-1.387.635-2.718 1.76-3.7 1.124-.981 2.65-1.533 4.24-1.535H99c1.591.002 3.116.554 4.241 1.535 1.125.982 1.757 2.313 1.759 3.7v34.745ZM184.364 128.506h-72.272V93.761c.001-1.387.634-2.718 1.759-3.7 1.125-.981 2.65-1.533 4.241-1.535h60.272c1.59.002 3.115.554 4.24 1.535 1.125.982 1.758 2.313 1.76 3.7v34.745ZM178.364 39.98h-60.272c-1.591-.002-3.116-.554-4.241-1.536-1.125-.981-1.758-2.312-1.759-3.7V5.235c.001-1.388.634-2.718 1.759-3.7 1.125-.981 2.65-1.533 4.241-1.535h60.272c1.59.002 3.115.554 4.24 1.535 1.125.982 1.758 2.312 1.76 3.7v29.51c-.002 1.387-.635 2.718-1.76 3.7-1.125.98-2.65 1.533-4.24 1.535ZM99 39.98H38.726c-1.59-.002-3.116-.554-4.24-1.536-1.125-.981-1.758-2.312-1.76-3.7V5.235c.002-1.388.635-2.718 1.76-3.7C35.61.554 37.137.002 38.727 0H99c1.591.002 3.116.554 4.241 1.535 1.125.982 1.757 2.312 1.759 3.7v29.51c-.002 1.387-.634 2.718-1.759 3.7-1.125.98-2.65 1.533-4.24 1.535Z"/><path fill="#CCC" d="M182.364 130.092H36.182c-.916 0-1.795-.317-2.443-.883-.648-.565-1.012-1.332-1.012-2.131 0-.8.364-1.566 1.012-2.132.648-.565 1.527-.883 2.443-.883h146.182c.916 0 1.795.318 2.442.883.648.566 1.012 1.332 1.012 2.132 0 .799-.364 1.566-1.012 2.131-.647.566-1.526.883-2.442.883Z"/><path fill="#CCC" d="M102.909 126.919H43.273v-12.057c0-6.901 3.141-13.519 8.733-18.398 5.592-4.88 13.177-7.62 21.085-7.62 7.908 0 15.493 2.74 21.085 7.62 5.591 4.879 8.733 11.497 8.733 18.398v12.057ZM174.182 126.919h-59.637v-12.057c0-6.901 3.142-13.519 8.734-18.398 5.592-4.88 13.176-7.62 21.085-7.62 7.908 0 15.492 2.74 21.084 7.62 5.592 4.879 8.734 11.497 8.734 18.398v12.057ZM141.636 154.683h4.728V128.03h-4.728v26.653Z"/><path fill="#CCC" d="M128.182 154.538c0 .446 7.163.172 16 .172 8.836 0 16 .274 16-.172s-7.164-3.98-16-3.98c-8.837 0-16 3.534-16 3.98ZM70.364 154.683h4.727V128.03h-4.727v26.653Z"/><path fill="#CCC" d="M56.91 154.538c0 .446 7.163.172 16 .172 8.836 0 16 .274 16-.172s-7.164-3.98-16-3.98c-8.837 0-16 3.534-16 3.98Z"/><path fill="#A0616A" d="M93.974 151.049h4.458l2.121-15.004h-6.58v15.004Z"/><path fill="#2F2E41" d="m107.03 154.661-14.011.001v-4.724h8.597c.711 0 1.415.122 2.072.359a5.51 5.51 0 0 1 1.756 1.024c.503.439.902.959 1.174 1.532a4.21 4.21 0 0 1 .412 1.808Z"/><path fill="#A0616A" d="m100.933 148.878 4.254-1.164-3.125-14.871-6.278 1.719 5.149 14.316Z"/><path fill="#2F2E41" d="m114.629 148.914-13.368 3.66-1.62-4.507 8.202-2.246a6.131 6.131 0 0 1 4.127.32c1.273.58 2.229 1.577 2.659 2.773ZM97.95 141.972l-8.155-18.679c-1.83.375-17.173 3.337-22.312-1.437-1.761-1.637-2.105-4.007-1.021-7.047l2.999-3.288.093.004c1.134.052 27.795 1.356 29.622 8.373 1.541 5.916 4.356 16.945 5.181 20.185a1.27 1.27 0 0 1-.161.988 1.599 1.599 0 0 1-.862.657l-3.28 1.073a1.833 1.833 0 0 1-1.501-.161 1.485 1.485 0 0 1-.602-.668Z"/><path fill="#2F2E41" d="m93.223 144.193-8.155-18.679c-1.83.375-17.173 3.337-22.313-1.437-1.76-1.636-2.104-4.007-1.02-7.047l2.999-3.288.093.004c1.134.052 27.795 1.356 29.622 8.373a5264.6 5264.6 0 0 1 5.181 20.185c.084.336.026.687-.161.988a1.597 1.597 0 0 1-.862.657l-3.28 1.073a1.836 1.836 0 0 1-1.501-.161 1.48 1.48 0 0 1-.603-.668Z"/><path fill="#EDBAC1" d="M85.887 107.952a7.77 7.77 0 0 1-3.447-.796c-1.05-.521-1.928-1.271-2.547-2.177l-2.59-3.829 6.156-2.936 2.614 3.128 17.736-1.63c.086-.137.183-.268.291-.392.34-.391.771-.715 1.264-.95a4.443 4.443 0 0 1 1.599-.42 4.496 4.496 0 0 1 1.662.187 4.093 4.093 0 0 1 1.426.77c.652.545 1.074 1.267 1.196 2.049a3.128 3.128 0 0 1-.52 2.254 3.736 3.736 0 0 1-1.135 1.072 4.33 4.33 0 0 1-1.538.573 4.584 4.584 0 0 1-1.672-.025 4.306 4.306 0 0 1-1.514-.62 4.151 4.151 0 0 1-.3-.222l-16.987 3.779a7.816 7.816 0 0 1-1.694.185Z"/><path fill="#536DFE" d="M61.62 118.017a1.484 1.484 0 0 1-.555-.609 1.261 1.261 0 0 1-.107-.771c1.012-5.82-.152-14.158-1.307-20.127a6.907 6.907 0 0 1 .268-3.629c.413-1.174 1.136-2.248 2.11-3.135a9.247 9.247 0 0 1 3.5-1.973 10.26 10.26 0 0 1 4.143-.39c1.216.14 2.42.348 3.605.62 1.969.433 3.71 1.438 4.939 2.849 1.228 1.41 1.869 3.144 1.818 4.915-.173 5.761 1.168 12.948 1.752 15.77.04.194.034.393-.018.585a1.353 1.353 0 0 1-.285.529 1.556 1.556 0 0 1-.495.382 1.781 1.781 0 0 1-.63.174c-6.476.576-13.46 3.332-17.046 4.923-.23.104-.486.158-.745.159a1.772 1.772 0 0 1-.948-.272Z"/><path fill="#536DFE" d="M79.1 103.005a1.669 1.669 0 0 1-.537-.302 1.44 1.44 0 0 1-.363-.459l-3.611-7.28a3.26 3.26 0 0 1-.345-1.392c-.01-.48.09-.955.292-1.401.202-.446.503-.853.885-1.197.382-.345.839-.62 1.343-.81a4.705 4.705 0 0 1 1.596-.3c.55-.008 1.095.08 1.606.256.51.177.976.44 1.37.773.395.334.71.733.928 1.173l3.612 7.28c.171.347.178.74.018 1.092a1.54 1.54 0 0 1-.87.785l-4.672 1.764a1.83 1.83 0 0 1-1.252.018Z"/><path fill="#EDBAC1" d="M69.008 84.907c4.932 0 8.931-3.489 8.931-7.793s-3.999-7.793-8.931-7.793c-4.933 0-8.932 3.49-8.932 7.793 0 4.304 4 7.793 8.932 7.793Z"/><path fill="#2F2E41" d="M63.61 84.038a1.439 1.439 0 0 1-.454.306 1.64 1.64 0 0 1-1.123.056 1.498 1.498 0 0 1-.492-.259c-1.991-1.406-3.57-3.206-4.608-5.25-1.161-2.415-1.331-5.362-.01-7.626 1.117-1.914 3.123-3.132 5.125-4.127a9.055 9.055 0 0 1 2.49-.919 3.737 3.737 0 0 1 1.355-.017c.448.077.872.235 1.246.464.397.263.704.616.888 1.02.185.404.24.844.159 1.273.915-1.053 2.15-1.861 3.564-2.334a4.696 4.696 0 0 1 2.747-.16c1.286.374 2.237 1.507 2.767 2.724.428.931.585 1.941.456 2.939a3.223 3.223 0 0 1-.49 1.356 3.719 3.719 0 0 1-1.062 1.078c-1.049.632-2.4.567-3.62.288-1.219-.28-2.403-.753-3.644-.885-1.24-.133-2.616.154-3.355 1.12-.52.68-.643 1.576-.75 2.43l-.552 4.441a5.254 5.254 0 0 1-.465 1.853c-.045.083-.103.16-.172.229Z"/><path fill="#EDBAC1" d="M82.702 116.09a4.162 4.162 0 0 1-1.426-.756 3.533 3.533 0 0 1-.95-1.198 3.073 3.073 0 0 1-.13-.323l-19.027-4.726c-.817-.206-1.537-.636-2.052-1.228a3.179 3.179 0 0 1-.806-2.054l-.047-6.41 7.014.164.456 3.85 16.27 6.374c.153-.08.312-.15.477-.211.6-.219 1.25-.308 1.898-.258a4.396 4.396 0 0 1 1.817.543c.547.306 1 .725 1.319 1.219.32.493.497 1.047.516 1.614.02.567-.12 1.129-.406 1.639-.285.509-.709.95-1.233 1.285a4.352 4.352 0 0 1-1.777.636c-.643.083-1.3.028-1.913-.16Z"/><path fill="#536DFE" d="M58.373 102.209a1.383 1.383 0 0 1-.322-.481 1.25 1.25 0 0 1-.085-.552l.558-7.918c.033-.478.174-.947.414-1.378a3.75 3.75 0 0 1 .988-1.135 4.358 4.358 0 0 1 1.41-.719 4.752 4.752 0 0 1 3.198.172c.494.21.936.504 1.3.864.363.36.642.778.82 1.232.179.454.252.934.218 1.413l-.558 7.917a1.368 1.368 0 0 1-.55.981 1.79 1.79 0 0 1-1.184.356l-5.08-.272a1.8 1.8 0 0 1-.619-.142 1.613 1.613 0 0 1-.508-.338ZM108.025 106.136h-5.141a.72.72 0 0 1-.446-.149.558.558 0 0 1-.214-.373l-1.029-9.203h8.519l-1.029 9.202a.558.558 0 0 1-.214.374.717.717 0 0 1-.446.149Z"/><path fill="#3F3D56" d="M109.7 97.57h-8.491a.716.716 0 0 1-.469-.17.55.55 0 0 1-.195-.41v-1.389a.55.55 0 0 1 .195-.41.716.716 0 0 1 .469-.169h8.491c.176 0 .345.061.469.17a.55.55 0 0 1 .195.409v1.39a.55.55 0 0 1-.195.408.716.716 0 0 1-.469.17ZM30.737 97.886H20.369c-.306 0-.6.106-.815.295a.945.945 0 0 0-.338.71v19.1h1.729V100.4c0-.267.12-.523.337-.711.216-.189.509-.295.814-.295h7.489c.305 0 .598.106.814.295a.946.946 0 0 1 .338.711v17.591h1.728v-19.1a.945.945 0 0 0-.337-.71 1.243 1.243 0 0 0-.815-.295h-.576Z"/><path fill="#3F3D56" d="M37.65 154.683H12.88c-1.298-.002-2.543-.452-3.46-1.253-.918-.801-1.435-1.887-1.436-3.02v-31.665c.001-1.133.518-2.218 1.436-3.019.918-.801 2.162-1.252 3.46-1.253h24.77c1.297.001 2.542.452 3.46 1.253.918.801 1.434 1.886 1.435 3.019v31.665c-.001 1.133-.517 2.219-1.435 3.02-.918.801-2.163 1.251-3.46 1.253Z"/><path fill="#3F3D56" d="M8.435 140.824c-1.683 0-2.592-3.043-2.592-5.906 0-2.863.909-5.906 2.592-5.906 1.684 0 2.592 3.043 2.592 5.906 0 2.863-.908 5.906-2.592 5.906Zm0-11.309c-.953 0-2.016 2.219-2.016 5.403 0 3.184 1.063 5.403 2.016 5.403.954 0 2.016-2.219 2.016-5.403 0-3.184-1.062-5.403-2.016-5.403Z"/><path fill="#fff" d="M35.921 135.834h-4.608c-.382 0-.748-.133-1.018-.368a1.183 1.183 0 0 1-.422-.888v-3.016c0-.333.152-.652.422-.888a1.55 1.55 0 0 1 1.018-.368h4.608c.382 0 .748.132 1.018.368s.422.555.422.888v3.016c0 .333-.152.652-.422.888-.27.235-.636.368-1.018.368Z"/><path fill="#fff" d="M37.361 152.553H11.027a.622.622 0 0 1-.407-.147.472.472 0 0 1-.169-.355v-35.065c0-.133.061-.261.169-.355a.618.618 0 0 1 .407-.148h26.334c.153 0 .3.053.408.148a.471.471 0 0 1 .168.355c0 .133-.06.261-.168.355a.618.618 0 0 1-.408.148H11.603v34.059h25.758a.626.626 0 0 1 .407.148.472.472 0 0 1 .168.355c0 .133-.06.261-.168.355a.62.62 0 0 1-.407.147ZM176.266 58.528a3.594 3.594 0 0 0-1.156-.574 8.818 8.818 0 0 0-2.936-.278c-.727.035-1.448.123-2.158.262l-33.151 8.184a22.54 22.54 0 0 0-1.847.536c-2.137-.73-8.179-2.84-8.841-3.598l-2.598.663 4.331 5.642a.578.578 0 0 0-.265.2.47.47 0 0 0-.09.296.482.482 0 0 0 .117.288c.071.084.17.147.283.18 4.994 1.497 12.537-.49 12.537-.49l28.967-7.22s8.743-2.581 6.807-4.091Z"/><path fill="#F2F2F2" d="m159.839 63.052-18.827 4.436-1.112 1.941 19.939-6.377Z"/><path fill="#CCC" d="M199.636 155H.364a.39.39 0 0 1-.257-.093.297.297 0 0 1-.107-.224.3.3 0 0 1 .107-.225.395.395 0 0 1 .257-.093h199.272c.097 0 .189.034.257.093.069.06.107.141.107.225a.295.295 0 0 1-.107.224.388.388 0 0 1-.257.093Z"/><path fill="#fff" d="M159.455 27.764c-.748 0-1.488.134-2.174.395a5.483 5.483 0 0 0-1.81 1.12 4.536 4.536 0 0 0-1.912-.226 4.366 4.366 0 0 0-1.809.582c-.54.32-.982.75-1.287 1.254a3.135 3.135 0 0 0-.463 1.634h14.909c0-1.262-.575-2.473-1.597-3.365-1.023-.893-2.411-1.395-3.857-1.395ZM79.454 12.216a6.12 6.12 0 0 0-2.173.395 5.488 5.488 0 0 0-1.81 1.12 4.532 4.532 0 0 0-1.912-.225 4.37 4.37 0 0 0-1.81.582c-.54.32-.98.75-1.286 1.254A3.136 3.136 0 0 0 70 16.975h14.91c0-1.262-.576-2.473-1.599-3.365-1.022-.893-2.41-1.394-3.857-1.394ZM54.727 53.782a6.12 6.12 0 0 0-2.173.395 5.491 5.491 0 0 0-1.81 1.12 4.534 4.534 0 0 0-1.912-.225 4.37 4.37 0 0 0-1.81.582 3.7 3.7 0 0 0-1.286 1.254 3.136 3.136 0 0 0-.463 1.633h14.909c0-.625-.141-1.243-.415-1.82a4.773 4.773 0 0 0-1.183-1.545 5.566 5.566 0 0 0-1.77-1.032 6.152 6.152 0 0 0-2.087-.362Z"/></g><defs><clipPath id="a"><path fill="#fff" d="M0 0h200v155H0z"/></clipPath></defs></svg>