<svg xmlns="http://www.w3.org/2000/svg" version="1.1" xmlns:xlink="http://www.w3.org/1999/xlink" xmlns:svgjs="http://svgjs.com/svgjs" width="512" height="512" x="0" y="0" viewBox="0 0 512 512" style="enable-background:new 0 0 512 512" xml:space="preserve" class=""><g><path fill="#10c6ff" d="M207.91 171.477a17.973 17.973 0 0 0-16.832-3.793l-11.918 3.406a1.419 1.419 0 0 0-.812 2.113l34.617 55.375L256 213.645zm0 0" data-original="#10c6ff" class=""></path><path fill="#91a0b5" d="M119.613 331.121H87.195V138.973h32.418zm0 0" data-original="#91a0b5" class=""></path><path fill="#60768c" d="M103.402 25.996c-4.14 0-7.5-3.36-7.5-7.504V7.504a7.503 7.503 0 1 1 15.004 0v10.988a7.504 7.504 0 0 1-7.504 7.504zm0 0" data-original="#60768c" class=""></path><path fill="#7c8fa5" d="M87.195 138.973v16.5c9.285 0 16.813 7.523 16.813 16.812v158.836h15.605V138.973zm0 0" data-original="#7c8fa5" class=""></path><path fill="#91a0b5" d="M70.781 140.793h65.246a7.312 7.312 0 0 0 7.313-7.313V94.414a7.312 7.312 0 0 0-7.313-7.312H70.781a7.312 7.312 0 0 0-7.312 7.312v39.066a7.312 7.312 0 0 0 7.312 7.313zm0 0" data-original="#91a0b5" class=""></path><path fill="#d5e0f2" d="M79.352 67.992h48.015l6.625-37.281c1.13-6.371-3.77-12.219-10.238-12.219h-40.7c-6.46 0-11.355 5.832-10.242 12.195zm0 0" data-original="#d5e0f2" class=""></path><path fill="#bdcde5" d="M123.754 18.492h-18.8c6.472 0 11.37 5.848 10.237 12.219l-6.62 37.281h18.796l6.625-37.281c1.13-6.371-3.77-12.219-10.238-12.219zm0 0" data-original="#bdcde5" class=""></path><path fill="#10c6ff" d="M57.387 111.852h92.035a8.18 8.18 0 0 0 8.18-8.18v-33.14c0-4.52-3.66-8.18-8.18-8.18H57.387c-4.52 0-8.18 3.66-8.18 8.18v33.14a8.18 8.18 0 0 0 8.18 8.18zm0 0" data-original="#10c6ff" class=""></path><path fill="#03b2e8" d="M149.422 62.352h-26.3c4.519 0 8.179 3.66 8.179 8.18v33.14a8.18 8.18 0 0 1-8.18 8.18h26.3a8.18 8.18 0 0 0 8.18-8.18v-33.14c0-4.52-3.66-8.18-8.18-8.18zm0 0" data-original="#03b2e8" class=""></path><path fill="#d5e0f2" d="M17.531 409.469h172.61l-21.852-77.649c-6.32-22.465-26.809-37.98-50.144-37.98H68.789c-28.309 0-51.258 22.95-51.258 51.258zm0 0" data-original="#d5e0f2" class=""></path><path fill="#bdcde5" d="M33.078 409.469h269.387L229.87 344.19a25.84 25.84 0 0 0-17.27-6.62H114.27c-6.95 0-13.606 2.8-18.465 7.769zm0 0" data-original="#bdcde5" class=""></path><path fill="#ffffff" d="M137.21 87.102a7.504 7.504 0 1 1-15.007 0 7.504 7.504 0 1 1 15.008 0zM111.512 87.102a7.504 7.504 0 1 1-15.008 0 7.504 7.504 0 1 1 15.008 0zM84.605 87.102a7.503 7.503 0 1 1-15.004 0 7.503 7.503 0 1 1 15.004 0zm0 0" data-original="#ffffff" class=""></path><path fill="#e4eef9" d="m483.887 196.09-204.469 57.574a30.49 30.49 0 0 1-8.152 1.18l-74.918.71a11.192 11.192 0 0 1-11.286-11.183c0-4.703 2.973-9.055 7.645-10.605l224.285-78.27a67.046 67.046 0 0 1 48.399 2.3l.98.43 17.664 7.833 1.871.832c13.305 5.89 11.977 25.199-2.02 29.199zm0 0" data-original="#e4eef9" class=""></path><path fill="#d5e0f2" d="m485.906 166.89-1.87-.831-17.669-7.832-.976-.43a67.046 67.046 0 0 0-48.399-2.3l-20.324 7.093a66.995 66.995 0 0 1 37.625 4.91l.98.43 17.668 7.832 1.871.832c11.551 5.117 12.063 20.344 2.836 26.886l26.239-7.39c13.996-4 15.324-23.309 2.02-29.2zm0 0" data-original="#d5e0f2" class=""></path><path fill="#bdcde5" d="m382.488 245.535-32.433 9.281a7.72 7.72 0 0 1-9.543-5.3l-3.89-13.594a7.718 7.718 0 0 1 5.296-9.543l32.434-9.277a7.724 7.724 0 0 1 9.546 5.296l3.887 13.594a7.717 7.717 0 0 1-5.297 9.543zm0 0" data-original="#bdcde5" class=""></path><g fill="#10c6ff"><path d="M406.738 177.574a7.502 7.502 0 0 0 4.59 14.285 7.504 7.504 0 0 0 4.852-9.437 7.505 7.505 0 0 0-9.442-4.848zM382.973 185.207a7.504 7.504 0 0 0-4.852 9.438 7.5 7.5 0 0 0 9.438 4.847 7.504 7.504 0 0 0 4.851-9.437c-1.27-3.946-5.496-6.118-9.437-4.848zM359.203 192.84a7.504 7.504 0 0 0-4.851 9.437 7.5 7.5 0 0 0 9.437 4.848 7.5 7.5 0 0 0 4.848-9.438 7.495 7.495 0 0 0-9.434-4.847zM335.434 200.473a7.504 7.504 0 0 0-4.852 9.437 7.5 7.5 0 0 0 9.438 4.848 7.504 7.504 0 0 0 4.851-9.438c-1.27-3.941-5.492-6.117-9.437-4.847zM311.664 208.105a7.504 7.504 0 0 0-4.851 9.438 7.5 7.5 0 0 0 9.437 4.848 7.504 7.504 0 0 0 4.852-9.438 7.505 7.505 0 0 0-9.438-4.848zM287.895 215.738a7.504 7.504 0 0 0-4.852 9.438 7.5 7.5 0 0 0 9.437 4.847 7.504 7.504 0 0 0 4.852-9.437 7.505 7.505 0 0 0-9.437-4.848zM484.035 166.059a7.444 7.444 0 0 1-4.851 4.203l-28.211 7.785a7.7 7.7 0 0 1-2 .27 7.516 7.516 0 0 1-7.235-5.512 7.51 7.51 0 0 1 5.242-9.227l19.387-5.351zM125.152 370.594h-7.238a7.504 7.504 0 0 1-7.504-7.504 7.5 7.5 0 0 1 7.504-7.5h7.238a7.5 7.5 0 0 1 7.504 7.5 7.504 7.504 0 0 1-7.504 7.504zM153.516 370.594h-7.243a7.503 7.503 0 0 1 0-15.004h7.243a7.503 7.503 0 0 1 0 15.004zM181.875 370.594h-7.238a7.504 7.504 0 0 1-7.504-7.504 7.5 7.5 0 0 1 7.504-7.5h7.238a7.5 7.5 0 0 1 7.504 7.5 7.504 7.504 0 0 1-7.504 7.504zM210.234 370.594h-7.238a7.504 7.504 0 0 1-7.504-7.504 7.5 7.5 0 0 1 7.504-7.5h7.238a7.5 7.5 0 0 1 7.504 7.5 7.504 7.504 0 0 1-7.504 7.504zM125.152 394.074h-7.238a7.504 7.504 0 1 1 0-15.008h7.238a7.504 7.504 0 1 1 0 15.008zM94.434 394.074h-7.239a7.504 7.504 0 1 1 0-15.008h7.239a7.504 7.504 0 1 1 0 15.008zM241.8 394.074h-7.241a7.504 7.504 0 1 1 0-15.008h7.242c4.14 0 7.5 3.36 7.5 7.504a7.503 7.503 0 0 1-7.5 7.504zM153.516 394.074h-7.243c-4.14 0-7.5-3.36-7.5-7.504a7.503 7.503 0 0 1 7.5-7.504h7.243c4.14 0 7.5 3.36 7.5 7.504a7.503 7.503 0 0 1-7.5 7.504zM181.875 394.074h-7.238a7.504 7.504 0 1 1 0-15.008h7.238a7.504 7.504 0 1 1 0 15.008zM210.234 394.074h-7.238a7.504 7.504 0 1 1 0-15.008h7.238a7.504 7.504 0 1 1 0 15.008zm0 0" fill="#10c6ff" data-original="#10c6ff" class=""></path></g><path fill="#60768c" d="M504.496 416.973H7.504c-4.145 0-7.504-3.36-7.504-7.504s3.36-7.5 7.504-7.5h496.992c4.145 0 7.504 3.355 7.504 7.5s-3.36 7.504-7.504 7.504zm0 0" data-original="#60768c" class=""></path></g></svg>