<svg xmlns="http://www.w3.org/2000/svg" version="1.1" xmlns:xlink="http://www.w3.org/1999/xlink" xmlns:svgjs="http://svgjs.com/svgjs" width="512" height="512" x="0" y="0" viewBox="0 0 43.349 43.349" style="enable-background:new 0 0 512 512" xml:space="preserve" class=""><g><path d="M41.4 43.35H7.408s-.538-4.434 1.478-4.703c0 0 1.478-.269 2.552-2.419 2.13-3.834 7.185-4.237 11.02-4.144.93.022 3.207-.067 4.11-1.402 2.545-3.768 9.104-2.508 12.145.038z" fill="#000000" data-original="#000000" class=""></path><path fill-rule="nonzero" d="M21.875 27.813v1.652h-1.541v-1.652z" fill="#000000" data-original="#000000" class=""></path><path d="M12.344 5.782 6.224 0h-2.52l1.59 5.782zM8.686 10.964c2.514.822 5.036 1.026 7.58 1.009l-5.405 5.197 4.04.652 7.146-5.891 10.367-.07c6.98-.048 7.517-1.66 6.018-3.095-1.215-1.163-3.769-2.21-5.31-2.21H1.95c1.296 1.489 2.686 2.555 4.227 3.357l-2.134 2.32 2.715.241z" fill="#000000" data-original="#000000" class=""></path><g fill-rule="nonzero"><path d="M21.875 25.242v1.653h-1.541v-1.653zM21.875 22.672v1.653h-1.541v-1.653zM21.875 20.102v1.653h-1.541v-1.653zM21.875 17.532v1.652h-1.541v-1.652zM21.875 14.961v1.653h-1.541v-1.653z" fill="#000000" data-original="#000000" class=""></path></g></g></svg>