 <svg
      xmlns="http://www.w3.org/2000/svg"
      width="24"
      height="24"
      version="1"
      viewBox="0 0 256 256"
    >
      <path
        d="M1552 2548c-7-7-12-19-12-28 0-29 23-40 86-40 205 0 430-95 587-248 160-156 250-353 266-581 5-74 10-96 24-105 49-31 68 43 47 189-61 416-373 738-787 810-103 18-195 19-211 3z"
        transform="matrix(.1 0 0 -.1 0 256)"
      ></path>
      <path
        d="M1541 2312c-14-26-14-28 5-46 11-11 34-16 78-16 274 0 536-210 606-486 11-43 20-105 20-140 0-44 5-67 16-78 19-19 25-20 49-2 16 12 18 23 12 108-10 178-78 327-207 459-131 133-291 207-471 216-91 5-98 4-108-15z"
        transform="matrix(.1 0 0 -.1 0 256)"
      ></path>
      <path
        d="M1552 2088c-16-16-15-43 1-56 6-5 44-12 82-15 112-8 178-39 261-121 83-83 112-147 123-265 4-55 11-77 24-85 29-19 52 4 55 58 11 161-102 352-256 434-101 54-259 81-290 50zM1595 1746c-79-25-112-51-278-215l-168-166-507 51-507 51-67-65c-38-36-68-70-68-77 0-6 163-84 362-173 200-90 370-167 378-172 12-7-6-30-86-112-55-57-108-114-117-127l-16-24-158 15-158 16-58-56c-31-31-57-59-57-63s82-44 183-90l183-83 83-183c46-101 86-183 90-183s32 26 62 57l56 58-15 157-16 157 30 23c16 12 72 64 125 115 52 51 98 93 101 93s81-169 174-375c92-206 173-375 179-375 7 0 41 30 77 68l65 67-52 505-51 505 166 170c186 190 221 243 222 335 0 42-5 57-24 76-29 29-82 37-133 20z"
        transform="matrix(.1 0 0 -.1 0 256)"
      ></path>
    </svg>