<svg
      xmlns="http://www.w3.org/2000/svg"
      width="512"
      height="512"
      viewBox="0 0 599.83 599.83"
    >
      <path
        d="M555.77 422.12v-48.992l-212.29-156.6c.648-41.274.595-83.026-.708-125.59C340.397 40.644 320.917.003 299.915.003c-20.995 0-40.475 40.641-42.849 90.935-1.302 42.568-1.356 84.321-.708 125.59l-212.3 156.6v48.992l215.76-88.871c2.709 66.227 6.021 131.85 8.404 197.85l-65.685 36.371v32.351l97.375-16.986 97.369 16.986V567.47l-65.67-36.371c2.374-65.998 5.678-131.62 8.404-197.85l215.75 88.87z"
        data-original="#000000"
      ></path>
      <path
        d="M138.92 248.81h39.716v66.667H138.92zm282.27 0h39.716v66.667H421.19z"
        data-original="#000000"
      ></path>
    </svg>