<?xml version="1.0" encoding="UTF-8"?>
<svg viewBox="0 0 993.73 422.32" xmlns="http://www.w3.org/2000/svg">
<path d="m608.04 422.32h-221.41c-6.2614 0-11.355-5.0943-11.355-11.355v-399.61c0-6.2609 5.0938-11.355 11.355-11.355h221.41c6.2614 0 11.355 5.0943 11.355 11.355v399.61c0 6.2609-5.0938 11.355-11.355 11.355zm-134.87-420.43c-53.018 0-95.997 42.979-95.997 95.997v313.07c0 5.2241 4.235 9.459 9.459 9.459h221.41c5.2241 0 9.459-4.2349 9.459-9.459v-399.61c0-5.2241-4.2349-9.459-9.459-9.459h-134.87z" fill="#e6e6e6"/>
<path d="m618.24 105.31c0 0.67684 0.75897 1.2203 1.704 1.2203h292.52c0.94501 0 1.704-0.54346 1.704-1.2203 0-0.67678-0.75897-1.2203-1.704-1.2203h-292.52c-0.94513 0-1.704 0.54352-1.704 1.2203h6e-5z" fill="#e6e6e6"/>
<polygon points="380.34 279.58 383.23 356.3 376.19 356.3 376.19 364.99 395.88 364.99 395.88 356.3 390.14 356.3 390.55 279.58" fill="#3f3d56"/>
<path d="m372.74 344h-3e-5c2.9979 0 5.4282 2.4303 5.4282 5.4282v22.437c0 2.9979-2.4303 5.4282-5.4282 5.4282h3e-5c-2.9979 0-5.4282-2.4303-5.4282-5.4282v-22.437c0-2.9979 2.4303-5.4282 5.4282-5.4282z" fill="#3f3d56"/>
<path d="m400.24 344h-3e-5c2.9979 0 5.4282 2.4303 5.4282 5.4282v22.437c0 2.9979-2.4303 5.4282-5.4282 5.4282h3e-5c-2.9979 0-5.4282-2.4303-5.4282-5.4282v-22.437c0-2.9979 2.4303-5.4282 5.4282-5.4282z" fill="#3f3d56"/>
<polygon points="444.39 231.78 332.93 226.72 350.3 218.75 448.01 220.2" fill="#6c63ff"/>
<polygon points="0 243.03 13.461 237.97 431.36 248.82 448.73 240.86 441.5 290.08 109.54 254.7" fill="#6c63ff"/>
<polygon points="107.48 271.62 109.54 254.7 441.5 290.08 439.69 315.05" fill="#3f3d56"/>
<ellipse cx="330.76" cy="285.01" rx="34.379" ry="36.55" fill="#3f3d56"/>
<circle cx="330.76" cy="278.5" r="25.332" fill="#6c63ff"/>
<polygon points="613.39 279.58 610.5 356.3 617.54 356.3 617.54 364.99 597.85 364.99 597.85 356.3 603.59 356.3 603.18 279.58" fill="#3f3d56"/>
<rect x="615.56" y="344" width="10.857" height="33.293" rx="5.4282" ry="5.4282" fill="#3f3d56"/>
<rect x="588.06" y="344" width="10.857" height="33.293" rx="5.4282" ry="5.4282" fill="#3f3d56"/>
<polygon points="549.34 231.78 660.8 226.72 643.43 218.75 545.72 220.2" fill="#6c63ff"/>
<polygon points="509.44 216.19 504.38 104.73 496.42 122.1 497.86 219.81" fill="#6c63ff"/>
<polygon points="993.73 243.03 980.27 237.97 562.37 248.82 545 240.86 552.23 290.08 884.19 254.7" fill="#6c63ff"/>
<polygon points="886.25 271.62 884.19 254.7 552.23 290.08 554.04 315.05" fill="#3f3d56"/>
<ellipse cx="662.97" cy="285.01" rx="34.379" ry="36.55" fill="#3f3d56"/>
<circle cx="662.97" cy="278.5" r="25.332" fill="#6c63ff"/>
<path d="m560.01 217.9-1.6429 12.106-0.854 65.168c-0.06519 4.8492-0.65143 9.6405-1.7515 14.287-3.1701 13.534-10.574 25.846-21.51 34.77-9.9228 8.1061-23.457 14.244-41.37 13.158-47.769-2.895-51.988-43.549-51.988-43.549l1.8022-73.723 0.24609-10.111 2.1713-18.244s5.7901-51.387 59.349-49.94c53.559 1.4475 55.549 56.077 55.549 56.077z" fill="#6c63ff"/>
<polygon points="456.7 200.9 467.55 183.53 481.3 179.19 528.35 179.19 539.93 183.53 550.44 200.9 531.24 192.22 477.4 192.22" fill="#e6e6e6"/>
<g fill="#3f3d56">
<polygon points="496.51 325.79 498.37 375 493.85 375 493.85 380.57 506.48 380.57 506.48 375 502.8 375 503.06 325.79"/>
<path d="m491.63 367.11c1.9232 0 3.4823 1.559 3.4823 3.4823v14.393c0 1.9232-1.559 3.4823-3.4823 3.4823s-3.4823-1.559-3.4823-3.4823v-14.393c0-1.9232 1.559-3.4823 3.4823-3.4823z"/>
<path d="m509.28 367.11c1.9232 0 3.4823 1.559 3.4823 3.4823v14.393c0 1.9232-1.559 3.4823-3.4823 3.4823s-3.4823-1.559-3.4823-3.4823v-14.393c0-1.9232 1.559-3.4823 3.4823-3.4823z"/>
</g>
<rect transform="translate(170.83 598.33) rotate(-74.477)" x="460.32" y="185.79" width="37.363" height="1.9997" fill="#6c63ff"/>
<rect transform="translate(-27.208 106) rotate(-11.117)" x="530" y="174.11" width="2.0004" height="37.363" fill="#6c63ff"/>
<circle cx="734.42" cy="103.75" r="13" fill="#6c63ff"/>
<circle cx="374.6" cy="146.31" r="13" fill="#6c63ff"/>
<path d="m80.244 390.31c0 0.67685 0.75895 1.2203 1.704 1.2203h292.52c0.94501 0 1.704-0.54346 1.704-1.2203 0-0.67679-0.75894-1.2203-1.704-1.2203h-292.52c-0.9451 0-1.704 0.54352-1.704 1.2203z" fill="#e6e6e6"/>
<circle cx="196.42" cy="388.75" r="13" fill="#6c63ff"/>
</svg>
