<svg xmlns="http://www.w3.org/2000/svg" version="1.1" xmlns:xlink="http://www.w3.org/1999/xlink" xmlns:svgjs="http://svgjs.com/svgjs" width="512" height="512" x="0" y="0" viewBox="0 0 512 512" style="enable-background:new 0 0 512 512" xml:space="preserve" class=""><g><path d="M480 341.334h-53.333v-32c0-5.888-4.779-10.667-10.667-10.667H288c-5.888 0-10.667 4.779-10.667 10.667v32H170.667v-160c0-5.888-4.779-10.667-10.667-10.667h-6.528l16.64-49.963c.363-1.088.555-2.219.555-3.371V74.667C170.667 68.779 165.888 64 160 64h-53.333V10.667C106.667 4.779 101.888 0 96 0S85.333 4.779 85.333 10.667V64H32c-5.888 0-10.667 4.779-10.667 10.667v42.667c0 1.152.192 2.283.555 3.371l16.64 49.963H32c-5.888 0-10.667 4.779-10.667 10.667v160H10.667C4.779 341.334 0 346.112 0 352v149.333C0 507.222 4.779 512 10.667 512h352V394.667c0-5.888 4.779-10.667 10.667-10.667h64c5.888 0 10.667 4.779 10.667 10.667V512h32c5.888 0 10.667-4.779 10.667-10.667V352c-.001-5.888-4.78-10.666-10.668-10.666zm-373.333 96c0 5.888-4.779 10.667-10.667 10.667H53.333c-5.888 0-10.667-4.779-10.667-10.667v-42.667c0-5.888 4.779-10.667 10.667-10.667H96c5.888 0 10.667 4.779 10.667 10.667zM128 266.667c0 5.888-4.779 10.667-10.667 10.667H74.667c-5.888 0-10.667-4.779-10.667-10.667V224c0-5.888 4.779-10.667 10.667-10.667h42.667c5.888 0 10.667 4.779 10.667 10.667v42.667zM117.333 128H74.667C68.779 128 64 123.222 64 117.334s4.779-10.667 10.667-10.667h42.667c5.888 0 10.667 4.779 10.667 10.667S123.221 128 117.333 128zm96 309.334c0 5.888-4.779 10.667-10.667 10.667H160c-5.888 0-10.667-4.779-10.667-10.667v-42.667c0-5.888 4.779-10.667 10.667-10.667h42.667c5.888 0 10.667 4.779 10.667 10.667v42.667zm106.667 0c0 5.888-4.779 10.667-10.667 10.667h-42.667c-5.888 0-10.667-4.779-10.667-10.667v-42.667c0-5.888 4.779-10.667 10.667-10.667h42.667c5.888 0 10.667 4.779 10.667 10.667z" fill="#ffffff" data-original="#000000" class=""></path><path d="M503.957 95.04c-17.493-11.968-36.075-13.44-54.293-4.587l-60.459 28.416-1.792 1.067-37.419-19.563c-15.637-10.411-33.515-15.936-52.011-15.936h-.021l-31.573.896a10.64 10.64 0 0 0-9.856 7.445c-1.365 4.331.128 9.045 3.776 11.755l66.411 49.792-52.267 27.157c-6.464-.619-25.152-5.184-34.453-7.467-12.032-2.923-13.888-3.349-16-3.349h-21.333a10.678 10.678 0 0 0-10.048 7.083 10.659 10.659 0 0 0 3.307 11.84c9.536 7.787 58.475 46.635 85.44 46.635 4.587 0 8.64-1.024 11.477-2.709l211.349-107.456c4.928-3.456 7.851-9.259 7.808-15.531-.021-6.25-3.029-12.032-8.043-15.488z" fill="#ffffff" data-original="#000000" class=""></path></g></svg>