<svg xmlns="http://www.w3.org/2000/svg" version="1.1" xmlns:xlink="http://www.w3.org/1999/xlink" xmlns:svgjs="http://svgjs.com/svgjs" width="512" height="512" x="0" y="0" viewBox="0 0 361.228 361.228" style="enable-background:new 0 0 512 512" xml:space="preserve" class=""><g><path d="m12.348 132.041-.036-.005a8.715 8.715 0 0 0-9.873 6.494 8.716 8.716 0 0 0 5.706 10.379l121.85 40.542-40.533 16.141a7.055 7.055 0 0 0 1.466 13.517l26.57 4.373a7.069 7.069 0 0 0 2.304-.002l100.975-16.795 97.254 15.842c37.176 5.542 42.321-7.729 43.012-11.931.537-3.256.166-8.438-4.641-14.626-4.875-6.279-13.269-12.348-25.652-18.553-4.135-2.072-6.104-3.632-8.188-5.284-7.334-5.807-12.791-9.106-47.809-14.871L83.206 125.736 50.492 57.958a8.717 8.717 0 0 0-6.436-4.812l-12.517-2.061a8.711 8.711 0 0 0-7.168 2.053 8.713 8.713 0 0 0-2.958 6.845l2.525 74.013-11.59-1.955zM342.707 277.051H16.604C7.434 277.051 0 284.484 0 293.654s7.434 16.604 16.604 16.604h326.103c9.17 0 16.605-7.436 16.605-16.604s-7.435-16.603-16.605-16.603z" fill="#1c7ea7" data-original="#000000" class=""></path></g></svg>