 <svg
      xmlns="http://www.w3.org/2000/svg"
      width="512"
      height="512"
      enableBackground="new 0 0 512 512"
      viewBox="0 0 512 512"
    >
      <path
        fill="#ffd772"
        fillRule="evenodd"
        d="M155.453 502.44h300.248a3.09 3.09 0 002.738-1.658l27.269-52.108c.47-.897.47-1.968 0-2.865l-27.269-52.137a3.09 3.09 0 00-2.739-1.658H155.453l-30.927 49.653z"
        clipRule="evenodd"
        data-original="#ffd772"
      ></path>
      <path
        fill="#f9f7f8"
        fillRule="evenodd"
        d="M155.453 502.44V387.781c0-2.93-2.397-5.298-5.327-5.298H31.237a5.293 5.293 0 00-5.298 5.298v118.891c0 2.901 2.338 5.298 5.239 5.327h119.006c2.9-.03 5.268-2.427 5.268-5.327v-4.232zM31.237 320.744h118.888c2.93 0 5.327-2.397 5.327-5.298V196.554c0-2.93-2.397-5.327-5.327-5.327H31.237c-2.93 0-5.298 2.397-5.298 5.327v118.892c0 2.9 2.368 5.298 5.298 5.298z"
        clipRule="evenodd"
        data-original="#f9f7f8"
      ></path>
      <path
        fill="#75cef8"
        fillRule="evenodd"
        d="M155.453 200.757l-32.927 52.91 32.927 57.547H455.7c1.15 0 2.205-.639 2.739-1.658l27.27-52.138a3.093 3.093 0 000-2.865l-27.27-52.138a3.09 3.09 0 00-2.739-1.658z"
        clipRule="evenodd"
        data-original="#75cef8"
      ></path>
      <path
        fill="#eb5468"
        fillRule="evenodd"
        d="M155.453 119.957h300.248a3.09 3.09 0 002.738-1.658l27.269-52.108c.47-.897.47-1.968 0-2.865l-27.269-52.137a3.09 3.09 0 00-2.739-1.658H155.453L126.526 59z"
        clipRule="evenodd"
        data-original="#eb5468"
      ></path>
      <path
        fill="#f9f7f8"
        fillRule="evenodd"
        d="M155.453 119.957V5.298c0-2.93-2.397-5.298-5.327-5.298H31.237a5.293 5.293 0 00-5.298 5.298v118.891c0 2.93 2.368 5.327 5.298 5.327h118.888c2.93 0 5.327-2.397 5.327-5.327v-4.232z"
        clipRule="evenodd"
        data-original="#f9f7f8"
      ></path>
      <path
        fill="#dddaec"
        fillRule="evenodd"
        d="M117.866 9.53v114.659c0 2.93-2.397 5.327-5.327 5.327h37.587c2.93 0 5.327-2.397 5.327-5.327V5.298c0-2.93-2.397-5.298-5.327-5.298h-37.587c2.93 0 5.327 2.368 5.327 5.298zm32.26 181.697h-37.587c2.93 0 5.327 2.397 5.327 5.327v118.891c0 2.901-2.397 5.298-5.327 5.298h37.587c2.93 0 5.327-2.397 5.327-5.298V196.554c0-2.93-2.397-5.327-5.327-5.327zm0 191.256h-37.587c2.93 0 5.327 2.368 5.327 5.298v118.891c0 2.901-2.368 5.298-5.268 5.327h37.587c2.9-.03 5.268-2.427 5.268-5.327V387.781c0-2.93-2.397-5.298-5.327-5.298z"
        clipRule="evenodd"
        data-original="#dddaec"
      ></path>
      <path
        fill="#e5384f"
        fillRule="evenodd"
        d="M410.573 9.53c6.866 18.942 10.714 40.045 10.714 62.302 0 16.87-2.19 33.06-6.245 48.125h40.659a3.09 3.09 0 002.738-1.658l27.269-52.108c.47-.897.47-1.968 0-2.865l-27.269-52.137a3.09 3.09 0 00-2.739-1.658h-45.127z"
        clipRule="evenodd"
        data-original="#e5384f"
      ></path>
      <path
        fill="#60b7ff"
        fillRule="evenodd"
        d="M410.573 200.757c6.866 18.942 10.714 40.045 10.714 62.331 0 16.841-2.19 33.03-6.245 48.125H455.7c1.15 0 2.205-.639 2.739-1.658l27.27-52.138a3.093 3.093 0 000-2.865l-27.27-52.138a3.09 3.09 0 00-2.739-1.658h-45.127z"
        clipRule="evenodd"
        data-original="#60b7ff"
      ></path>
      <path
        fill="#fbba58"
        fillRule="evenodd"
        d="M410.573 392.013c6.866 18.942 10.714 40.045 10.714 62.302 0 16.841-2.19 33.06-6.245 48.125h40.659a3.09 3.09 0 002.738-1.658l27.269-52.108c.47-.897.47-1.968 0-2.865l-27.269-52.137a3.09 3.09 0 00-2.739-1.658h-45.127z"
        clipRule="evenodd"
        data-original="#fbba58"
      ></path>
      <path
        fill="#2b4d66"
        d="M96.763 100.898a7.726 7.726 0 01-7.726-7.726v-49.13H84.6a7.726 7.726 0 110-15.452h12.164a7.726 7.726 0 017.726 7.726v56.856a7.726 7.726 0 01-7.727 7.726zm-8.873 191.82c-11.111 0-11.985-.292-13.016-.635-2.554-.87-4.427-2.79-5.184-5.283-1.273-4.191.696-6.766 4.27-11.441 2.88-3.768 8.242-10.78 17.273-23.686 3.033-4.325 4.278-7.402 4.784-9.309l.144-1.199c-.197-3.578-3.183-6.43-6.824-6.43-3.255 0-6.064 2.301-6.682 5.471a7.722 7.722 0 01-9.061 6.107 7.726 7.726 0 01-6.107-9.061c2.028-10.412 11.216-17.97 21.85-17.97 12.29 0 22.288 9.985 22.288 22.259 0 .308-.019.616-.055.922l-.267 2.22a7.804 7.804 0 01-.149.844c-1.09 4.642-3.533 9.694-7.264 15.013-5.053 7.221-8.986 12.642-11.994 16.701 4.469-.019 9.514-.063 14.3-.124 4.273-.089 7.77 3.36 7.825 7.627s-3.36 7.77-7.627 7.825c-8.175.104-14.133.149-18.504.149zm25.064 139.962c0-12.29-9.985-22.288-22.258-22.288-10.602 0-19.8 7.557-21.872 17.968a7.725 7.725 0 006.069 9.086 7.72 7.72 0 009.086-6.069c.638-3.206 3.463-5.532 6.717-5.532 3.753 0 6.805 3.066 6.805 6.835s-3.053 6.836-6.805 6.836a7.726 7.726 0 100 15.452 6.813 6.813 0 016.805 6.806c0 3.769-3.053 6.836-6.805 6.836-3.393 0-6.299-2.515-6.752-5.79a7.936 7.936 0 01-.083-1.046 7.726 7.726 0 10-15.452 0c0 .972.065 1.909.22 3.099 1.511 10.94 10.997 19.189 22.067 19.189 12.273 0 22.258-9.998 22.258-22.288a22.158 22.158 0 00-5.424-14.537 22.209 22.209 0 005.424-14.557zM245.455 54.105h-47.65a7.726 7.726 0 110-15.452h47.65a7.726 7.726 0 110 15.452zm49.218 37.943h-96.868a7.726 7.726 0 110-15.452h96.868a7.725 7.725 0 017.726 7.726 7.725 7.725 0 01-7.726 7.726zm-49.218 152.041h-47.65a7.726 7.726 0 110-15.452h47.65a7.726 7.726 0 110 15.452zm49.218 37.973h-96.868a7.726 7.726 0 110-15.452h96.868a7.725 7.725 0 017.726 7.726 7.725 7.725 0 01-7.726 7.726zm-49.218 154.467h-47.65a7.726 7.726 0 110-15.452h47.65a7.726 7.726 0 110 15.452zm49.218 37.943h-96.868a7.726 7.726 0 110-15.452h96.868a7.725 7.725 0 017.726 7.726 7.725 7.725 0 01-7.726 7.726z"
        data-original="#2b4d66"
      ></path>
    </svg>