<?xml version="1.0" standalone="no"?>
<!DOCTYPE svg PUBLIC "-//W3C//DTD SVG 20010904//EN"
 "http://www.w3.org/TR/2001/REC-SVG-20010904/DTD/svg10.dtd">
<svg version="1.0" xmlns="http://www.w3.org/2000/svg"
 width="720.000000pt" height="720.000000pt" viewBox="0 0 720.000000 720.000000"
 preserveAspectRatio="xMidYMid meet">

<g transform="translate(0.000000,720.000000) scale(0.100000,-0.100000)"
fill="#000000" stroke="none">
<path d="M3290 6529 c-935 -97 -1780 -651 -2251 -1477 -45 -79 -82 -150 -83
-159 -1 -13 37 -27 174 -64 96 -27 180 -48 187 -49 6 0 30 35 54 78 141 258
383 543 623 734 374 299 767 469 1256 545 162 25 539 25 700 0 568 -89 1037
-319 1429 -701 216 -212 369 -420 502 -681 314 -622 363 -1308 140 -1973 l-58
-172 54 -41 c106 -82 203 -207 203 -262 0 -38 19 -11 64 89 105 234 186 511
228 775 29 190 32 635 5 822 -123 858 -587 1594 -1303 2067 -391 258 -857 424
-1318 469 -127 13 -482 12 -606 0z"/>
<path d="M2683 5068 c3 -7 116 -247 252 -533 314 -661 475 -1004 475 -1010 0
-11 -40 -3 -135 26 -93 28 -183 54 -345 99 -36 10 -240 68 -455 129 -214 62
-471 134 -570 162 -99 28 -185 56 -191 62 -11 11 -302 560 -340 639 -12 26
-27 41 -48 48 -60 19 -289 80 -292 77 -2 -1 41 -153 96 -337 130 -444 226
-770 265 -905 l31 -109 275 -89 c151 -49 630 -203 1064 -343 435 -141 880
-285 990 -321 110 -35 247 -80 305 -98 58 -18 258 -83 445 -143 379 -123 625
-188 885 -234 157 -28 196 -31 385 -32 229 -1 285 9 339 59 32 30 35 85 6 132
-78 129 -369 324 -730 489 -265 121 -426 178 -1045 374 -55 17 -107 37 -115
43 -8 7 -55 82 -104 167 -48 85 -188 306 -311 490 -122 184 -338 511 -480 725
-141 215 -259 392 -261 395 -5 4 -334 49 -373 49 -15 1 -21 -3 -18 -11z"/>
<path d="M890 4753 c-86 -206 -152 -428 -189 -643 -61 -346 -55 -749 14 -1095
210 -1049 1000 -1918 2026 -2228 274 -83 476 -115 779 -124 234 -6 457 10 640
48 729 149 1356 542 1791 1124 114 152 208 301 182 290 -102 -44 -128 -49
-308 -53 l-180 -4 -40 -56 c-54 -76 -312 -335 -410 -412 -313 -248 -696 -427
-1077 -504 -397 -80 -746 -73 -1146 25 -604 147 -1153 539 -1514 1079 -38 58
-108 182 -153 275 -168 341 -249 665 -262 1045 -6 198 6 355 43 558 l24 133
-44 152 c-25 84 -66 222 -91 306 -25 85 -47 156 -49 158 -2 2 -18 -32 -36 -74z"/>
</g>
</svg>
