<?xml version="1.0" standalone="no"?>
<svg xmlns:xlink="http://www.w3.org/1999/xlink" id="wave" style="transform:rotate(0deg); transition: 0.3s" viewBox="0 0 1440 350" version="1.1" xmlns="http://www.w3.org/2000/svg"><defs><linearGradient id="sw-gradient-0" x1="0" x2="0" y1="1" y2="0"><stop stop-color="rgba(52, 152, 219, 1)" offset="0%"/><stop stop-color="rgba(52, 152, 219, 1)" offset="100%"/></linearGradient></defs><path style="transform:translate(0, 0px); opacity:1" fill="url(#sw-gradient-0)" d="M0,280L60,262.5C120,245,240,210,360,198.3C480,187,600,198,720,215.8C840,233,960,257,1080,233.3C1200,210,1320,140,1440,140C1560,140,1680,210,1800,210C1920,210,2040,140,2160,93.3C2280,47,2400,23,2520,58.3C2640,93,2760,187,2880,198.3C3000,210,3120,140,3240,93.3C3360,47,3480,23,3600,29.2C3720,35,3840,70,3960,122.5C4080,175,4200,245,4320,227.5C4440,210,4560,105,4680,64.2C4800,23,4920,47,5040,58.3C5160,70,5280,70,5400,64.2C5520,58,5640,47,5760,70C5880,93,6000,152,6120,163.3C6240,175,6360,140,6480,122.5C6600,105,6720,105,6840,116.7C6960,128,7080,152,7200,157.5C7320,163,7440,152,7560,140C7680,128,7800,117,7920,128.3C8040,140,8160,175,8280,163.3C8400,152,8520,93,8580,64.2L8640,35L8640,350L8580,350C8520,350,8400,350,8280,350C8160,350,8040,350,7920,350C7800,350,7680,350,7560,350C7440,350,7320,350,7200,350C7080,350,6960,350,6840,350C6720,350,6600,350,6480,350C6360,350,6240,350,6120,350C6000,350,5880,350,5760,350C5640,350,5520,350,5400,350C5280,350,5160,350,5040,350C4920,350,4800,350,4680,350C4560,350,4440,350,4320,350C4200,350,4080,350,3960,350C3840,350,3720,350,3600,350C3480,350,3360,350,3240,350C3120,350,3000,350,2880,350C2760,350,2640,350,2520,350C2400,350,2280,350,2160,350C2040,350,1920,350,1800,350C1680,350,1560,350,1440,350C1320,350,1200,350,1080,350C960,350,840,350,720,350C600,350,480,350,360,350C240,350,120,350,60,350L0,350Z"/></svg>