  <svg xmlns="http://www.w3.org/2000/svg" viewBox="0 0 500 500">
      <g>
        <path fill="#ebebeb" d="M0 382.4H500V382.65H0z"></path>
        <path
          fill="#ebebeb"
          d="M416.78 398.49H435.66999999999996V398.74H416.78z"
        ></path>
        <path fill="#ebebeb" d="M293.05 396.75H322.52V397H293.05z"></path>
        <path
          fill="#ebebeb"
          d="M368.67 389.21H415.78000000000003V389.46H368.67z"
        ></path>
        <path fill="#ebebeb" d="M52.46 390.89H63.43V391.14H52.46z"></path>
        <path fill="#ebebeb" d="M72.33 390.89H110.89V391.14H72.33z"></path>
        <path fill="#ebebeb" d="M171 395.11H225.15V395.36H171z"></path>
        <path
          fill="#ebebeb"
          d="M237 337.8H43.91a5.71 5.71 0 01-5.7-5.71V60.66a5.71 5.71 0 015.7-5.66H237a5.71 5.71 0 015.71 5.71v271.38a5.71 5.71 0 01-5.71 5.71zM43.91 55.2a5.46 5.46 0 00-5.45 5.46v271.43a5.46 5.46 0 005.45 5.46H237a5.47 5.47 0 005.46-5.46V60.66A5.47 5.47 0 00237 55.2zM453.31 337.8h-193.1a5.72 5.72 0 01-5.71-5.71V60.66a5.72 5.72 0 015.71-5.66h193.1a5.71 5.71 0 015.69 5.66v271.43a5.71 5.71 0 01-5.69 5.71zM260.21 55.2a5.47 5.47 0 00-5.46 5.46v271.43a5.47 5.47 0 005.46 5.46h193.1a5.47 5.47 0 005.46-5.46V60.66a5.47 5.47 0 00-5.46-5.46z"
        ></path>
        <path
          fill="#f5f5f5"
          d="M296.76 75.34l-.85 1.71a.68.68 0 01-.51.37l-1.89.28a.68.68 0 00-.38 1.16l1.37 1.34a.7.7 0 01.2.6l-.33 1.88a.68.68 0 001 .72l1.69-.89a.72.72 0 01.64 0l1.69.89a.68.68 0 001-.72l-.32-1.88a.64.64 0 01.2-.6l1.36-1.34a.68.68 0 00-.38-1.16l-1.89-.28a.68.68 0 01-.51-.37l-.85-1.71a.68.68 0 00-1.24 0z"
        ></path>
        <path
          fill="#f0f0f0"
          d="M429.16 306.42l-1.28.94a.57.57 0 01-.52.08l-1.51-.51a.56.56 0 00-.72.71l.5 1.51a.56.56 0 01-.08.52l-1 1.27a.58.58 0 00.46.92h1.59a.56.56 0 01.47.25l.91 1.3a.57.57 0 001-.16l.48-1.51a.58.58 0 01.37-.38l1.52-.46a.57.57 0 00.17-1l-1.29-.92a.54.54 0 01-.24-.47v-1.59a.56.56 0 00-.83-.5z"
        ></path>
        <path
          fill="#f5f5f5"
          d="M420.37 88.7l-.37 1.87a.66.66 0 01-.41.48l-1.77.71a.68.68 0 00-.1 1.22l1.64 1a.68.68 0 01.34.54l.12 1.91a.69.69 0 001.14.46l1.43-1.26a.7.7 0 01.62-.15l1.85.47a.68.68 0 00.8-.93l-.76-1.76a.67.67 0 010-.63l1-1.62a.68.68 0 00-.65-1l-1.9.18a.69.69 0 01-.59-.25l-1.22-1.46a.68.68 0 00-1.17.22zM92.16 154.81l-.8.81a.37.37 0 01-.36.11l-1.12-.19a.41.41 0 00-.44.59l.53 1a.42.42 0 010 .38l-.54 1a.4.4 0 00.43.59l1.12-.19a.43.43 0 01.36.12l.8.83a.4.4 0 00.69-.23l.17-1.12a.41.41 0 01.23-.31l1-.5a.41.41 0 000-.73l-1-.51a.42.42 0 01-.22-.31l-.15-1.15a.41.41 0 00-.7-.19zM391.85 295.7l-.51 1a.41.41 0 01-.31.23l-1.13.16a.41.41 0 00-.22.7l.81.79a.42.42 0 01.12.37l-.19 1.12a.41.41 0 00.59.43l1-.53a.42.42 0 01.38 0l1 .53a.41.41 0 00.59-.43l-.19-1.12a.42.42 0 01.12-.37l.82-.79a.41.41 0 00-.23-.7l-1.13-.16a.43.43 0 01-.31-.23l-.5-1a.41.41 0 00-.71 0z"
        ></path>
        <path
          fill="#ebebeb"
          d="M137.35 75.45l-.13 1.13a.38.38 0 01-.21.32l-1 .54a.41.41 0 000 .73l1 .47a.43.43 0 01.24.3l.2 1.12a.41.41 0 00.71.2l.76-.84a.42.42 0 01.36-.13l1.13.15a.41.41 0 00.41-.61l-.57-1a.42.42 0 010-.38l.5-1a.41.41 0 00-.46-.57l-1.11.23a.42.42 0 01-.37-.1l-.81-.81a.41.41 0 00-.65.25zM106.28 309.18l.24 2a.71.71 0 01-.24.61l-1.48 1.31a.71.71 0 00.33 1.22l1.94.38a.7.7 0 01.51.42l.79 1.81a.7.7 0 001.26.06l1-1.72a.7.7 0 01.56-.36l2-.19a.7.7 0 00.45-1.18l-1.34-1.45a.71.71 0 01-.17-.64l.43-1.92a.71.71 0 00-1-.8l-1.79.83a.7.7 0 01-.66 0l-1.7-1a.71.71 0 00-1.13.62z"
        ></path>
        <path
          fill="#f0f0f0"
          d="M193.54 99.89a1.33 1.33 0 101.32-1.33 1.32 1.32 0 00-1.32 1.33z"
        ></path>
        <path
          fill="#f5f5f5"
          d="M151.3 357.67a1.33 1.33 0 101.33-1.33 1.33 1.33 0 00-1.33 1.33z"
        ></path>
        <path
          fill="#f0f0f0"
          d="M177.67 75.92a4.86 4.86 0 104.86-4.86 4.85 4.85 0 00-4.86 4.86zM430.81 149.25a2.69 2.69 0 102.69-2.69 2.7 2.7 0 00-2.69 2.69z"
        ></path>
        <circle cx="56.08" cy="312.86" r="1.35" fill="#f0f0f0"></circle>
        <path
          fill="#f0f0f0"
          d="M384.7 363.68a2.43 2.43 0 102.42-2.43 2.42 2.42 0 00-2.42 2.43z"
        ></path>
        <path
          fill="#f5f5f5"
          d="M64.37 124.65a30.24 30.24 0 0041.4-10.74c.35-.59.68-1.19 1-1.79a37.35 37.35 0 01-45.53-37.5 30.26 30.26 0 003.16 50z"
        ></path>
        <path
          fill="#f0f0f0"
          d="M58.66 97.48a6.85 6.85 0 005.74 1.13 18 18 0 01-8.55-6.28 6.85 6.85 0 002.81 5.15zM88.31 121.48a6.89 6.89 0 004.36-3.91 17.66 17.66 0 01-4.85 2.29 17.89 17.89 0 01-5.31.76 6.91 6.91 0 005.8.86zM64.52 109.87a6.84 6.84 0 005.17-2.74 17.13 17.13 0 01-5.25 1.05 17.47 17.47 0 01-5.34-.55 6.87 6.87 0 005.42 2.24zM72.79 121.2a6.86 6.86 0 005.3 2.49 17.21 17.21 0 01-4-3.56 17.72 17.72 0 01-2.77-4.6 6.85 6.85 0 001.47 5.67z"
        ></path>
      </g>
      <g>
        <ellipse
          cx="250"
          cy="416.24"
          fill="#f5f5f5"
          rx="193.89"
          ry="11.32"
        ></ellipse>
      </g>
      <g>
        <circle
          cx="273.28"
          cy="225.67"
          r="151.1"
          fill="#52B7FF"
          transform="rotate(-45 273.286 225.671)"
        ></circle>
        <circle
          cx="273.28"
          cy="225.67"
          r="151.1"
          fill="#fff"
          opacity="0.7"
          transform="rotate(-45 273.286 225.671)"
        ></circle>
        <g fill="#52B7FF" opacity="0.2">
          <path d="M420.88 258.15l-2.35-5.2-8.62-.94-6.91-4.32-7.22-3.89-6-8.47-8.31-7.09-4.14 11.87 4.38 6.85 7.37 4.09 3.72 7.7 6.16 4.74 6.6 2.83-2.25 7.94-2.31 8.58-1.67 9.5-9.19-.58-6.82 5.33-7.54 2.72-7.65-2.35-6.6-5.9-8.1-5.56-8.91-4.72-5-8.42-3.25-7.06-4.11-7.41-.15-8.4-.21-8.39-3.68-7.26-2.84 12.15-2.89 7.37.17 8.12-3.09 7.58-3.8 9-2 9 5.28 3.25 8.44.64-6.58 8.06-6 7.46-6.37 7.21-8 6.14-9.16 3.85-8.84 4.46-10.22 1.82-7.33 7.46-10.23 1.71-9.19 4.68L236 348l-10.17.1-7.1-3.57-10.1-.13 4.39-7.82 2.4-6.92 3-9.86 1.58-10.5 2-10.11 2.78-8.42 3.25-8.6-3-9.34 4.32-8.94-4.9-7.63-5.45-6.58-7-5.4-4.38-7.36-3.33-7.49-2.44-7.94-1.24-8.6-2.93-9.13 7.91-7.47 4.72-9.09 8.29-5.2 7.94.77 9 1.06 8.88 1.76 9.71-1.58 7.54 7.89 9.73 3.1 8.67 5.06 8.61 5.19 8.71 5.17 6.16 8.66 9.4 4.25 8.78-1 8.53.79 8.4 1.82 10.08 3.21-3.18-12.34-3.16-10.34-6.4-3.2-5.24-7.13-7.54-2.83-7-3.18-.89-7.59L313 174l-1.82-8-9.64-4.56-10.28-2.23-9.2-1.76-6.72 5-8.82.62-9.71 1.48-11-9.54 6.66-6.42-.23-8.77 4.49-6.65 10.57-4.75 7.3-8.16 8.54 1.81 8.07 5.1h9.78l9.27-3.66 9.68 1.37 7.64-4.29 5.33-6.46 5.85-5.78 8.91-1.27 8.4 4.14h8.82l8.21 1.66 2.43 1.5a151.26 151.26 0 0145.35 143.77z"></path>
          <path d="M284.59 338.08L280.17 344.4 270.49 346.5 262.9 349.24 273.75 352.82 283.12 352.82 290.91 346.93 291.96 342.29 284.59 338.08z"></path>
          <path d="M171.39 337l-.18.09a151.34 151.34 0 01-41-62.82l-.75-3.93-1.25-2.44a150.22 150.22 0 01-1.46-79.15l1.83 6.64 2.2 9.32 5.57 8.72-.35 10.19 4.75 8.91 1 9.72.62 8-1.15 7.92-4.61 7.39 2.9 9.59 4.71 8.27 2.9 7.16 1.21 9.86 5 6.88 2 8.44 5.64 6.57 3.9 7.47zM295.17 81.55L289.25 84l-7.56 4.34-7.69 4.08-7.83 3.65-8.68 1.43-8.15 2.63-8.18-2.72-8.48-1.77-8.15-3.1-8.34.87-8.61 3.79-7 6.63-5.42 8.41-9.74 3.55-5.13 8.56-5.56 7.05-1.4 9.32-6.62 6.72-2.81 8.56-5.83 7.11-2.32 8-7.53-1.1-8.28-1.57-5.68-1.92a151.15 151.15 0 01158.81-90.68z"></path>
        </g>
        <path
          fill="#fff"
          d="M426.14 175.74c-22.94 19.55-74.38 11.93-86.9 7.81s7.48-1.89 17.54-4 13.81-10.86 28.94-4 15.08 8.86 21.51 1.32 31.91-12.2 18.91-1.13zM124.29 273.3c14.47 38.54 81 63.49 98.64 66.85s-7.68-7.2-18.33-16.34-9.3-22.13-31.91-24-23.88.6-26.57-12.66-30.03-35.68-21.83-13.85zM229.62 174.32c-40.42-8.23-78.94-32.6-82.51-45.86-2.11-7.82 3.71.11 10.28 2.56s20.66-6.24 24.66 4.19.58 16.12 11.72 19.88 18.33-1.31 24.7 7.59 22.19 13.89 11.15 11.64zM330.17 308.68c-55.06-3.35-110.62-28.42-117.83-45.31-4.25-10 4.94-.54 14.1 1.47s26.19-12.12 33.44.94 3.77 21.24 19.22 24.14 24-5.17 34.14 5.43 31.97 14.24 16.93 13.33zM364.6 351.77c-24 16.59-70.63 15.42-79.52 7.92-5.24-4.42 6.81-4.45 12.71-5.09s13.27-12.55 20.26-6.18 2.77 10 12.33 7.28 12.12-9.76 20.85-6.64 21.21-2.71 13.37 2.71zM334.44 132.89c29 7.66 60.26.84 65.6-9.2 3.15-5.92-2.51-1.26-7.47-1.55s-12.49-12.85-17.5-5.39-4 13.58-12.28 12.74-12-7.79-18.28-2.49-17.99 3.8-10.07 5.89z"
        ></path>
      </g>
      <g>
        <path
          fill="#e8a6a2"
          d="M193.02 247.76L188.2 243.64 197.31 232.07 202.14 236.19 193.02 247.76z"
        ></path>
        <path
          fill="#263238"
          d="M190 241.69l5.35 4.41a.51.51 0 01.12.66l-2.84 5a1 1 0 01-1.47.26c-1.89-1.63-4.58-4-7-6-2.83-2.34-2.64-2-6-4.73-2-1.66-.79-4.07.21-3.55 4.56 2.35 5 2.63 10.08 3.4a3 3 0 011.55.55z"
        ></path>
        <path
          d="M197.31 232.08L192.62 238.04 197.44 242.16 202.14 236.19 197.31 232.08z"
          opacity="0.2"
        ></path>
        <path d="M229.54 214.46c33.21 2.41 41.78 8.92 57.17 3.45l1.45-14.35-19.83-7.51s-23.92-3.3-42.37 1.62c-19.18 5.11-32.23 35.81-32.23 35.81l8.28 6s6.36-17.69 27.53-25.02z"></path>
        <path
          fill="#263238"
          d="M194.17 230.45L192.06 234.38 200.65 241.63 203.61 238.71 194.17 230.45z"
        ></path>
        <path
          fill="#52B7FF"
          d="M197.53 314.12l-29.6-4.49a18 18 0 01-14.51-23 18 18 0 0124.89-11l27.07 12.79a7.45 7.45 0 013.94 8.91l-3.55 11.64a7.45 7.45 0 01-8.24 5.15z"
        ></path>
        <path
          d="M197.53 314.12l-29.6-4.49a18 18 0 01-14.51-23 18 18 0 0124.89-11l27.07 12.79a7.45 7.45 0 013.94 8.91l-3.55 11.64a7.45 7.45 0 01-8.24 5.15z"
          opacity="0.4"
        ></path>
        <path
          fill="#52B7FF"
          d="M188.25 234.57c5.48 1.19 13.48 2 15-.74 8.89-16.17 22-42 24.86-47.78.44-.86-.1-1.64-1.52-2.25l-19.41-8.37c-4.06-1.49-9-.18-12.72 1.25-22.83 8.84-65.06 27-74.78 34.3 10.32 9.44 49.93 19.53 68.57 23.59z"
        ></path>
        <path
          d="M188.25 234.57c5.48 1.19 13.48 2 15-.74 8.89-16.17 22-42 24.86-47.78.44-.86-.1-1.64-1.52-2.25l-19.41-8.37c-4.06-1.49-9-.18-12.72 1.25-22.83 8.84-65.06 27-74.78 34.3 10.32 9.44 49.93 19.53 68.57 23.59z"
          opacity="0.2"
        ></path>
        <path
          fill="#52B7FF"
          d="M355.19 259.8c2.14.05 4.47-.5 2.57-2.5-11.39-11.94-29.83-30.88-33.93-35.08a4.67 4.67 0 00-2.17-1.29l-11-2.94c-2.09-.45-2.06 1.09-1.67 2.54 2.41 8.94 8.36 26.68 12.3 32.85 9.96 4.87 26.64 6.24 33.9 6.42z"
        ></path>
        <path
          d="M355.19 259.8c2.14.05 4.47-.5 2.57-2.5-11.39-11.94-29.83-30.88-33.93-35.08a4.67 4.67 0 00-2.17-1.29l-11-2.94c-2.09-.45-2.06 1.09-1.67 2.54 2.41 8.94 8.36 26.68 12.3 32.85 9.96 4.87 26.64 6.24 33.9 6.42z"
          opacity="0.2"
        ></path>
        <path
          fill="#52B7FF"
          d="M172.5 181.36c-3.09-.68-6.15-1.31-9.08-1.87l.19-1c2.94.56 6 1.19 9.1 1.87zM156.13 178.17a198.93 198.93 0 00-32.62-3.12 108 108 0 00-13.16.75l-.12-1a112.11 112.11 0 0113.28-.75 200.94 200.94 0 0132.79 3.13z"
        ></path>
        <path
          fill="#52B7FF"
          d="M87.89 185.54c47.24-29 175 29.35 243.78 44.58 31.94 7.08 12.39 33.06-2.92 36.46s-202.86 16-264.53-12 1.55-55.44 23.67-69.04z"
        ></path>
        <path
          fill="#52B7FF"
          d="M324.81 267.2a41.76 41.76 0 0036.34-27.85c5.22-14.57 8.92-25 8.92-25a28.89 28.89 0 00-27-.92l-35.39 17.22z"
        ></path>
        <path
          d="M323.1 246.75c2.37 5.91 9.21 12.93 14.26 17.56a40.9 40.9 0 0014.21-9.6z"
          opacity="0.2"
        ></path>
        <path
          fill="#fff"
          d="M343.37 251.42a164.21 164.21 0 01-19.09.67c-6.38-.11-12.76-.63-19.12-1.28s-12.69-1.66-19-2.74c-25.25-4.53-49.94-11.85-74.29-20.21-6.09-2.08-12.17-4.23-18.3-6.4-3.09-1.06-6.11-2.15-9.39-3.15-1.71-.44-3.4-1-5.15-1.32l-2.63-.48a23.31 23.31 0 00-2.64-.38 57.35 57.35 0 00-21.34 1.6 65.72 65.72 0 00-10 3.73 68.33 68.33 0 00-9.23 5.27l-2.19 1.54-2.11 1.62-2 1.65c-.58.49-1.17 1-1.78 1.46-2.38 1.92-4.88 3.77-7.42 5.56a172.23 172.23 0 01-15.87 9.84 114.83 114.83 0 01-16.66 7.6 51.39 51.39 0 01-8.22 2.25c-.78.14-1.55.25-2.29.31a196.42 196.42 0 0025.53 6.15c2.83-1.44 5.58-3 8.29-4.58a179.84 179.84 0 0016.72-11.21c2.69-2 5.32-4.13 7.9-6.35.64-.55 1.28-1.13 1.91-1.69l1.7-1.51 1.68-1.39 1.75-1.33a58.26 58.26 0 017.44-4.61 52.8 52.8 0 018-3.31 46.12 46.12 0 0117.09-1.89 16 16 0 012.16.24l2.16.3c1.44.24 2.86.65 4.29 1 2.94.78 6 1.76 9.1 2.7 6.16 1.93 12.36 3.89 18.58 5.78 24.88 7.56 50.23 14.12 76.13 17.82 6.48.88 13 1.64 19.5 2.13s13.08.73 19.65.61A165.48 165.48 0 00343.9 256q3.86-.53 7.67-1.27a40.23 40.23 0 004.28-5.14c-4.12.8-8.29 1.41-12.48 1.83z"
          opacity="0.2"
        ></path>
        <path
          d="M231.34 267.2s-46.9-.25-91.47-4.5c-1-.1-3.87-5.17-6.92-6.43-.33 3.52.29 5.76-1.48 5.57-25.78-2.79-57-9.18-69.18-15.64-6.2-22.18-19.87-28.85-19.87-28.85-8.54 11.41-6.78 24.27 21.8 37.22 61.67 28 249.22 15.4 264.53 12z"
          opacity="0.2"
        ></path>
        <path
          fill="#52B7FF"
          d="M139.88 248.34a7 7 0 00-4.47 12.36c30.83 24.82 88.43 64.38 102.7 74.13a19.53 19.53 0 007.19 3l35 6.79c4.19.81 5.85-1.54 4.09-4.9-10.88-20.75-35.94-62.89-50.49-77.19-32.5-11.3-71.48-13.79-94.02-14.19z"
        ></path>
        <path
          d="M233.7 326.5l-94.23-73.23c-3.08-2.39-7.57.62-6.3 4.3a6.9 6.9 0 002.24 3.13c30.83 24.82 88.43 64.38 102.7 74.13a19.53 19.53 0 007.19 3l35 6.79c2.1.41 3.56 0 4.28-.89l-31.45-7.77a52.22 52.22 0 01-19.43-9.46z"
          opacity="0.2"
        ></path>
        <path
          fill="#52B7FF"
          d="M320.33 241.45a2.43 2.43 0 00-.91 4.5c11.94 7 33.89 17.74 39.33 20.38a6.76 6.76 0 002.64.66l12.46.55c1.49.07 1.95-.83 1.16-1.9-4.82-6.62-15.65-19.91-21.41-24.11-11.84-2.24-25.45-1.1-33.27-.08z"
        ></path>
        <path
          d="M356.8 263.67l-36.36-20.5a1.4 1.4 0 00-1.95 1.81 2.33 2.33 0 00.93 1c11.94 7 33.89 17.74 39.33 20.38a6.76 6.76 0 002.64.66l12.46.55a1.48 1.48 0 001.44-.52L364 265.94a18.18 18.18 0 01-7.2-2.27z"
          opacity="0.2"
        ></path>
        <path
          fill="#fff"
          d="M90.29 184.19q-1.23.63-2.4 1.35c-3 1.82-6.64 3.88-10.66 6.16 1.87 5.38 7.77 11.66 15.26 17.3l13.85-10.62c-6.94-4.38-12.84-9.45-16.05-14.19zM111.28 201.26l-12.35 12.11a93.24 93.24 0 009.77 5.36 8.35 8.35 0 0011.3-4.54 8.35 8.35 0 00-4.17-10.55c-1.51-.75-3.04-1.55-4.55-2.38z"
        ></path>
        <path
          fill="#52B7FF"
          d="M380.6 238c23.53 5 84.21 15 53.18-22.22 35.9 36.61-2.25 42.14-35 44a20.24 20.24 0 01-16.29-6.75 64.28 64.28 0 01-6.47-8.62 4.29 4.29 0 014.58-6.41z"
        ></path>
        <path
          fill="#fff"
          d="M380.6 238c23.53 5 84.21 15 53.18-22.22 35.9 36.61-2.25 42.14-35 44a20.24 20.24 0 01-16.29-6.75 64.28 64.28 0 01-6.47-8.62 4.29 4.29 0 014.58-6.41z"
          opacity="0.2"
        ></path>
        <path
          fill="#e8a6a2"
          d="M291.31 124.29a6 6 0 01-1.15 4.41c-1.28 1.66-3.19.82-3.89-1-.63-1.67-.73-4.54 1.07-5.54a2.71 2.71 0 013.97 2.13z"
        ></path>
        <path
          d="M291.31 124.29a6 6 0 01-1.15 4.41c-1.28 1.66-3.19.82-3.89-1-.63-1.67-.73-4.54 1.07-5.54a2.71 2.71 0 013.97 2.13z"
          opacity="0.2"
        ></path>
        <path
          fill="#263238"
          d="M288 124.88c-4.13-1.61-.44-10.39 4-10.14.6-3.5 6.88-3.68 11-1.41a19.63 19.63 0 017.72 7.9c2.95 4.93 7.92 5.39 7.62 7.16-.4 2.31-5.09-.93-6.55-.18s6.5 2.35 6.42 4.76-5.25-.65-6.87-1.31-2.87.71.86 2.9c4.91 2.87 2.05 4.33.1 2.87-3.82-2.88-7.88-1.76-4.92.82s-.5 3.46-2.79.67-4 2-8.75-1.79-6.32-5.13-7.84-12.25z"
        ></path>
        <path
          fill="#e8a6a2"
          d="M213.31 261.4L203.21 272.13 198.32 267.06 208.42 256.34 213.31 261.4z"
        ></path>
        <path
          fill="#263238"
          d="M200.05 265.82l5.9 3.61a.48.48 0 01.2.62l-2.36 5.19a1 1 0 01-1.46.43c-2.11-1.34-2.68-1.91-5.36-3.55-3.13-1.91-5.33-2.23-9.06-4.37-2.26-1.29-1.35-3.8-.27-3.46 3.45 1 8.67 1.61 10.8 1.13a2.22 2.22 0 011.61.4z"
        ></path>
        <path
          d="M213.31 261.41L208.1 266.94 203.21 261.87 208.41 256.34 213.31 261.41z"
          opacity="0.2"
        ></path>
        <path
          fill="#263238"
          d="M247.85 235.8c19.86-11.17 54.75-7.27 54.75-27.48l-22-7.65s-29 7.58-43.52 20.58c-15.11 13.52-32 36-32 36l7.1 7.36s18.82-14.03 35.67-28.81z"
        ></path>
        <path
          fill="#fff"
          d="M204.98 254.84L202.75 258.67 211.55 266.03 214.66 263.21 204.98 254.84z"
        ></path>
        <path
          fill="#e8a6a2"
          d="M284.8 153.13c-2.19.83-4.29 1.47-6.46 2.13s-4.34 1.21-6.57 1.7a67.05 67.05 0 01-6.83 1.22 32.88 32.88 0 01-7.57.21h-.25a3.78 3.78 0 01-1.78-.67 7.79 7.79 0 01-2.4-2.69 8.67 8.67 0 01-1-2.74 15 15 0 01-.08-4.41 32.37 32.37 0 011.74-7.07 59.88 59.88 0 012.65-6.29c1-2 2-4 3.24-5.92a2.4 2.4 0 014.33 2v.07c-.61 2-1.25 4-1.78 6.07s-1.06 4-1.45 6a30.53 30.53 0 00-.68 5.67 6.8 6.8 0 00.25 2.06c.05.08.07.22.11.23s0 .1.06 0a.58.58 0 00-.24-.3l-2-.7a29.26 29.26 0 005.46-.62c2-.38 4-.86 6-1.4s4-1.12 6.05-1.74 4.06-1.28 6-1.89h.07a4.81 4.81 0 013.17 9.08z"
        ></path>
        <path
          fill="#e8a6a2"
          d="M262.25 133.82l6.18-2.62-5.14-5.75s-5.78 2.86-4.34 6.27z"
        ></path>
        <path
          fill="#e8a6a2"
          d="M270.88 126.88l-2.23-2.65a1.84 1.84 0 00-2.3-.44l-3.06 1.66 5.14 5.75 2.16-1.67a1.85 1.85 0 00.29-2.65z"
        ></path>
        <path
          fill="#f0f0f0"
          d="M285.66 142c-6.22-.82-16.23 5.14-16.23 5.14a44 44 0 002.46 13.73 32.29 32.29 0 0010.82-3.68c1.86-.98 10.29-14.19 2.95-15.19z"
        ></path>
        <path
          fill="#fff"
          d="M285 141.93a101.58 101.58 0 0124.34 5.42 9.09 9.09 0 015.85 9 183.36 183.36 0 01-10.08 52.47c-3.52.13-18.64-1.34-26-4-.81-.29-1.14-3.86-1.14-3.86a9.71 9.71 0 00-3.83.59 16.55 16.55 0 01-6.24-5.35c3.61-5.71 5.31-18.82 6.37-29.91.12-4.37.31-12.31 2.38-16.76 1.88-4.19 3.67-7.96 8.35-7.6z"
        ></path>
        <path
          fill="#52B7FF"
          d="M291 154.35c-.13.39-.44.64-.67.55s-.33-.46-.2-.84.44-.64.68-.55.29.49.19.84z"
        ></path>
        <path
          fill="#e8a6a2"
          d="M301.61 133.06c-.74 4.7-1.37 10.22 1.06 13.74-2.12 2.77-6.78 4.76-11.34 5.62-2.66-3.6-2.1-6.84-.69-8.65 2.74-1.7 2.51-4.56 2.54-6.54z"
        ></path>
        <path
          fill="#e0e0e0"
          d="M291.33 152.42a5.82 5.82 0 01-.93-2.74c0-1.43-2.58-.64-2.58-.64a9.71 9.71 0 003.51 3.38zM291.33 152.42a2.6 2.6 0 012.39-1.76 8.35 8.35 0 013.67.58s-3.62 1.4-6.06 1.18z"
        ></path>
        <path
          d="M299.61 134.87c.06-.3.1-.6.13-.89l-6.56 3.26a11.53 11.53 0 01-.46 4.06c3.06-.95 6.39-3.59 6.89-6.43z"
          opacity="0.2"
        ></path>
        <path
          fill="#e8a6a2"
          d="M305.25 127c-2.53 5.76-3.73 9.26-7.81 11.16-6.15 2.86-12.42-2.6-11.65-9 .69-5.78 4.72-14.22 11.34-14.39a8.67 8.67 0 018.12 12.23z"
        ></path>
        <path
          fill="#263238"
          d="M292.72 115.33c-.92 3.78 9.95 5.67 9.95 5.67s-5.93 10 1 9.57 7.29-8.76 1.91-13.86c-3.78-3.58-10.16-4.81-12.86-1.38zM288.78 129.84a37.43 37.43 0 017.13 1 4.49 4.49 0 01-5.15 1.91 2.34 2.34 0 01-1.98-2.91z"
        ></path>
        <path
          fill="#ff5652"
          d="M292.32 131.82a5 5 0 00-3.09.16 2.7 2.7 0 001.53.82 5 5 0 003.08-.15 2.68 2.68 0 00-1.52-.83z"
        ></path>
        <path
          fill="#fff"
          d="M289 129.85a1 1 0 00.6 1 28.16 28.16 0 004.69.57 1.62 1.62 0 001.38-.52 42.31 42.31 0 00-6.67-1.05z"
        ></path>
        <path
          fill="#e8a6a2"
          d="M305.58 132.12a5.91 5.91 0 01-4.25 1.63c-2.1-.08-2.53-2.12-1.43-3.76s3.28-3.24 5.13-2.35a2.7 2.7 0 01.55 4.48z"
        ></path>
        <path
          fill="#263238"
          d="M297.37 125.41c-.17.48-.57.77-.89.66s-.42-.61-.24-1.09.57-.77.89-.65.42.6.24 1.08zM291.4 123.16c-.18.48-.58.77-.89.65s-.42-.6-.25-1.08.58-.78.89-.66.42.61.25 1.09z"
        ></path>
        <path
          fill="#630f0f"
          d="M293.37 123.93a18.29 18.29 0 01-3.92 3.09 3 3 0 002.08 1.37z"
        ></path>
        <path
          fill="#263238"
          d="M299.6 123.36a.26.26 0 00.15 0 .29.29 0 00.25-.36 3 3 0 00-1.67-2.2.3.3 0 00-.38.17.29.29 0 00.16.39 2.45 2.45 0 011.31 1.75.3.3 0 00.18.25zM290.07 120a.32.32 0 00.28 0 2.36 2.36 0 012.12-.43.29.29 0 00.38-.18.29.29 0 00-.18-.38 2.94 2.94 0 00-2.68.5.29.29 0 00-.06.42.26.26 0 00.14.07z"
        ></path>
        <path
          fill="#e8a6a2"
          d="M315.7 154.76c.56 3 .94 5.8 1.33 8.71s.63 5.82.85 8.76.34 5.91.31 8.93a48.68 48.68 0 01-.9 9.44l-.05.23a3.67 3.67 0 01-.77 1.6 53.23 53.23 0 01-4.85 5c-1.65 1.52-3.39 2.9-5.12 4.27s-3.53 2.61-5.34 3.84-3.64 2.38-5.59 3.48a2.4 2.4 0 01-2.86-3.81l4.51-4.43c1.49-1.48 3-3 4.43-4.46a82.66 82.66 0 007.9-9.13l-.83 1.83a45.65 45.65 0 00.25-7.69c-.12-2.71-.33-5.47-.6-8.23s-.63-5.55-1-8.33-.79-5.59-1.19-8.29v-.06a4.81 4.81 0 019.48-1.6z"
        ></path>
        <path
          fill="#fff"
          d="M309.67 147.51c9.4 3.88 8.34 17.19 8.34 17.19-3.43 4.34-7.24 7.73-12.21 8.15a15.36 15.36 0 01-4-10.75c.04-5.31 1-17.42 7.87-14.59z"
        ></path>
        <path
          fill="#e8a6a2"
          d="M296.27 203.06l-6.4.39 2.6 7.25s5.76-1.06 5.69-4.21zM285.41 208.42l1.34 2.38a2.22 2.22 0 002.7 1l3-1.1-2.6-7.25-3.57 1.91a2.23 2.23 0 00-.87 3.06z"
        ></path>
        <path
          fill="#52B7FF"
          d="M301.64 144.05c-.27 1.44-1.48 6.23-7.92 6.61 2.24.69 2.35 6.47 2.35 6.47s7-5.86 7.59-11.09c-.2-1.37-2.02-1.99-2.02-1.99zM292.4 141.73c-.26 1.4-2.39 3.77-2 8-2.25-.65-5.58 2.76-5.58 2.76a23.24 23.24 0 014.89-10.08 6.34 6.34 0 012.69-.68z"
        ></path>
      </g>
    </svg>