<svg
      xmlns="http://www.w3.org/2000/svg"
      width="24"
      height="24"
      viewBox="0 0 256 256"
    >
      <path
        fill="#383768"
        strokeMiterlimit="10"
        d="M36 2a5 5 0 100 10 5 5 0 000-10zm-5.219 11a3.286 3.286 0 00-2.75 1.469l-7.75 11.844c-.328.523-.308 1.128-.062 1.656l-2.657 3.843-3.28-2.28a2.887 2.887 0 00-4 .718l-5.657 8.094A3.568 3.568 0 004.062 41c.157.863.625 1.59 1.313 2.125A4.982 4.982 0 0110 40c1.316 0 2.512.508 3.406 1.344L21.937 29a1.766 1.766 0 001.344-.813l6.032-8.718-1.157 6.218a7.345 7.345 0 00.875 5.063L38.281 47c.36.617 1.004 1 1.719 1 1.45 0 2.426-1.484 1.844-2.813L34.937 29.22l1.97-10.5c.562-2.973-1.723-5.719-4.75-5.719zm6.969 6.656l-1.031 5.407 5.593 4.562a1.664 1.664 0 002.313-.219c.586-.695.477-1.73-.219-2.312l-5.718-4.813zM27.531 30.781l-1.718 5.938-5.5 8.406c-.524.797-.368 1.875.375 2.469.816.652 2 .492 2.625-.344l5.843-7.781 1.469-3.282zM10 42c-1.652 0-3 1.348-3 3s1.348 3 3 3 3-1.348 3-3-1.348-3-3-3z"
        fontFamily="none"
        fontSize="none"
        fontWeight="none"
        textAnchor="none"
        transform="scale(5.12)"
      ></path>
    </svg>